<svg id="Calque_1" data-name="Calque 1" xmlns="http://www.w3.org/2000/svg" xmlns:xlink="http://www.w3.org/1999/xlink" viewBox="0 0 487.37 174.33"><defs><style>.cls-1{fill:url(#Dégradé_sans_nom_14);}.cls-2{fill:url(#Dégradé_sans_nom_27);}.cls-3{fill:#234795;}.cls-4{fill:url(#Dégradé_sans_nom_14-2);}.cls-5{fill:url(#Dégradé_sans_nom_14-3);}.cls-6{fill:url(#Dégradé_sans_nom_14-4);}.cls-7{fill:url(#Dégradé_sans_nom_14-5);}.cls-8{fill:url(#Dégradé_sans_nom_14-6);}.cls-9{fill:url(#Dégradé_sans_nom_14-7);}.cls-10{fill:url(#Dégradé_sans_nom_14-8);}.cls-11{fill:url(#Dégradé_sans_nom_14-9);}.cls-12{fill:url(#Dégradé_sans_nom_14-10);}</style><linearGradient id="Dégradé_sans_nom_14" x1="54.42" y1="395.15" x2="177.12" y2="395.15" gradientUnits="userSpaceOnUse"><stop offset="0" stop-color="#1d345a"/><stop offset="0.37" stop-color="#2b4e83"/><stop offset="0.66" stop-color="#3666ac"/></linearGradient><linearGradient id="Dégradé_sans_nom_27" x1="108.31" y1="446.28" x2="231" y2="446.28" gradientUnits="userSpaceOnUse"><stop offset="0" stop-color="#048c38"/><stop offset="1" stop-color="#8abe40"/></linearGradient><linearGradient id="Dégradé_sans_nom_14-2" x1="179.1" y1="358.84" x2="545.46" y2="317.75" xlink:href="#Dégradé_sans_nom_14"/><linearGradient id="Dégradé_sans_nom_14-3" x1="179.77" y1="364.87" x2="546.13" y2="323.78" xlink:href="#Dégradé_sans_nom_14"/><linearGradient id="Dégradé_sans_nom_14-4" x1="180.43" y1="370.68" x2="546.79" y2="329.59" xlink:href="#Dégradé_sans_nom_14"/><linearGradient id="Dégradé_sans_nom_14-5" x1="180.87" y1="374.65" x2="547.23" y2="333.57" xlink:href="#Dégradé_sans_nom_14"/><linearGradient id="Dégradé_sans_nom_14-6" x1="181.45" y1="379.81" x2="547.81" y2="338.73" xlink:href="#Dégradé_sans_nom_14"/><linearGradient id="Dégradé_sans_nom_14-7" x1="182.14" y1="385.99" x2="548.5" y2="344.91" xlink:href="#Dégradé_sans_nom_14"/><linearGradient id="Dégradé_sans_nom_14-8" x1="182.54" y1="389.49" x2="548.9" y2="348.41" xlink:href="#Dégradé_sans_nom_14"/><linearGradient id="Dégradé_sans_nom_14-9" x1="182.89" y1="392.66" x2="549.25" y2="351.57" xlink:href="#Dégradé_sans_nom_14"/><linearGradient id="Dégradé_sans_nom_14-10" x1="183.27" y1="396.02" x2="549.63" y2="354.93" xlink:href="#Dégradé_sans_nom_14"/></defs><path class="cls-1" d="M161.89,426.05c-1,12-6.91,20.87-17.5,26.6a32.46,32.46,0,0,1-15.8,3.82c-16.87,0-33.74.09-50.6,0C65.86,456.37,56.09,448,55,436a152.47,152.47,0,0,1-.08-26.17c1-12.46,11-20.77,23.6-20.8,9.14,0,18.29-.17,27.43.09,3.27.1,3.87-1,3.81-4-.17-8.94-.09-17.88-.06-26.83,0-14.59,10-24.46,24.52-24.48,6.7,0,13.41-.1,20.11,0,11.84.23,22,9.65,22.54,21.4.45,10.33.1,20.7.1,31.53-1.34,0-2.51,0-3.68,0-6.4.1-12.85-.31-19.17.43-15.85,1.84-27,12.21-30.5,27.66-.91-8.59,5.49-21.83,13.62-28.82,9.06-7.79,19.91-8.23,31.17-7.64,0-8.2.41-16-.13-23.78-.47-6.84-6.91-12.1-14.17-12.29-7.11-.19-14.23-.21-21.34,0-8.57.25-14.56,6.62-14.58,15.19,0,12.2-.08,24.4.05,36.59,0,2.62-.58,3.5-3.34,3.46-11.79-.16-23.58-.08-35.36-.09-10.52,0-16.39,5.82-16.47,16.38,0,6.2-.08,12.4,0,18.59.12,9.38,6.18,15.43,15.53,15.46,16.87,0,33.73.15,50.6,0,13.08-.14,23.59-5.34,30.43-16.9A49.94,49.94,0,0,0,161.89,426.05Z" transform="translate(-54.42 -333.3)"/><path class="cls-2" d="M123.53,415.38c1-12,6.92-20.88,17.5-26.61A32.58,32.58,0,0,1,156.84,385c16.86,0,33.73-.08,50.6,0,12.12.08,21.89,8.43,23,20.47a152.36,152.36,0,0,1,.08,26.16c-1,12.47-11,20.78-23.59,20.81-9.15,0-18.3.16-27.44-.1-3.26-.09-3.87,1-3.81,4,.17,8.94.1,17.89.06,26.83,0,14.59-9.95,24.47-24.51,24.48-6.71,0-13.42.11-20.12,0-11.83-.24-22-9.65-22.54-21.4-.44-10.33-.09-20.7-.09-31.53,1.34,0,2.51,0,3.68,0,6.39-.1,12.85.31,19.17-.42,15.84-1.85,27-12.21,30.5-27.66.91,8.58-5.49,21.82-13.63,28.82-9,7.79-19.91,8.23-31.16,7.64,0,8.2-.42,16,.12,23.77.48,6.84,6.92,12.1,14.18,12.3,7.1.18,14.23.21,21.33,0,8.57-.25,14.56-6.62,14.58-15.19,0-12.19.08-24.39-.05-36.58,0-2.62.58-3.5,3.35-3.46,11.78.16,23.57.08,35.36.08,10.51,0,16.39-5.81,16.46-16.37,0-6.2.09-12.4,0-18.6-.12-9.37-6.18-15.42-15.53-15.45-16.86-.05-33.73-.15-50.6,0-13.08.15-23.59,5.34-30.42,16.91A49,49,0,0,0,123.53,415.38Z" transform="translate(-54.42 -333.3)"/><path class="cls-3" d="M314.86,498.6q-3,0-4.31-5.2a37.32,37.32,0,0,1-1.52-9.74,105.52,105.52,0,0,1,1.6-15.34,275.73,275.73,0,0,1,8.15-34.6q4.8-16.22,15-42.51c1.65-4.26,2.48-6.89,2.48-7.91,0-.42-.11-.64-.32-.64-1.12,0-4,2.78-8.67,8.31a224.39,224.39,0,0,0-13.78,18.3q-6.79,10-16.94,27.73T281,466.48l-6.71,14.38a42.9,42.9,0,0,1-2.88,5.15c-1.09,1.68-2.15,2.52-3.16,2.52a2.84,2.84,0,0,1-1.43-.4,3.33,3.33,0,0,1-1.76-3.19q0-1.44,2.15-9.59,5.59-21.57,14-44.59Q293,398.5,293.57,396.49a11.65,11.65,0,0,0,.6-2.8c0-.53-.16-.8-.48-.8-.53,0-1.25.54-2.16,1.6a208.35,208.35,0,0,0-16.85,24.61q-9.75,16.62-24.53,49.06-9.68,21.09-11.47,24.09t-4.43,3q-3.92,0-3.92-3.83,0-6.72,7.27-32.12c.21-.8.44-1.59.68-2.36s.43-1.36.56-1.76.36-1.1.68-2.11c1.44-4.48,2.34-7.12,2.72-7.91l.16-.64c-.16,0-1.1,1.27-2.8,3.83q-9.91,14.15-14.78,14.14a3.54,3.54,0,0,1-1.68-.48,2.7,2.7,0,0,1-1.68-2.47c0-1.28.94-2.27,2.8-3q2.48-.87,8-6.83a142.89,142.89,0,0,0,11.06-13.54,90.2,90.2,0,0,0,8.07-13.35q5.93-12,11-12c1.12,0,1.68.37,1.68,1.12s-.8,2.71-2.4,5.59q-1.68,2.88-5.51,9.31a73.34,73.34,0,0,0-5.35,10.35,248.27,248.27,0,0,0-11.59,35.55q-3.44,13.5-3.44,16.3c0,1.07.24,1.6.72,1.6q1.28,0,11.39-22.33t15.62-32.72q9.42-17.89,18.7-32.12a86.08,86.08,0,0,1,7.39-10.15q2.75-3,5.15-3c2.34,0,3.52,1.54,3.52,4.63q0,3.84-3.4,13.5t-8.67,24.09q-5.26,14.43-8.95,26.77t-4.79,16.94q-1.12,4.59-1.2,4.83a1.54,1.54,0,0,0-.08.32q.24,0,9.27-18.38,10-20.3,16.94-31.88,16.36-27.32,29.72-43.14,6.32-7.35,10.23-7.35,3.27,0,3.27,3.91a17.9,17.9,0,0,1-.8,4.72Q337.48,397,333,408.75t-9.47,28.09a206.33,206.33,0,0,0-6.71,27q-1.68,10.59-2,14.86c-.21,2.85-.32,4.79-.32,5.8A25.76,25.76,0,0,0,316,493.4a11.08,11.08,0,0,1,.64,3.2C316.62,497.93,316,498.6,314.86,498.6Z" transform="translate(-54.42 -333.3)"/><path class="cls-3" d="M334.94,455q-3.63,0-4.12-4.12l-.1-1.18q0-2.55,4.22-12.16c-2.94-1.63-4.42-3.62-4.42-6a8.77,8.77,0,0,1,2-5.2q4.8-6.36,14.9-6.37a29.46,29.46,0,0,1,4.61.39q5.69.69,5.69,6.67,0,5.6-3.73,12.16H355a55.82,55.82,0,0,0,8.63-.69c2.61-.32,4.31-.49,5.1-.49s1,.2,1,.59a.8.8,0,0,1-.59.74,50.12,50.12,0,0,1-5.15,1,59.79,59.79,0,0,1-10.05.78h-1.18a42.54,42.54,0,0,1-5.88,7.16Q340,455,334.94,455Zm.39-2.06a11.59,11.59,0,0,0,2.45-.88,24.58,24.58,0,0,0,6.37-4.56,35.24,35.24,0,0,0,5.79-6.82c-4.31-.19-7.45-.69-9.41-1.47a39,39,0,0,0-5.15,7.4,11.56,11.56,0,0,0-1.33,4.66C334.05,452.41,334.48,453,335.33,453ZM351,439.14q3.63-6.27,3.63-10.2,0-4.89-2.36-6.08a7.66,7.66,0,0,0-3-.68q-4.9,0-9.9,4-4.61,3.63-4.61,6.76a3.69,3.69,0,0,0,.39,1.67c.26.53.56.79.89.79s.71-.43,1.17-1.28a5.14,5.14,0,0,1,4.61-2.84c2.35,0,3.53.82,3.53,2.45a3.28,3.28,0,0,1-1.18,2.25l-2,1.57C343.63,438.29,346.57,438.82,351,439.14Z" transform="translate(-54.42 -333.3)"/><path class="cls-3" d="M355,487.39c-1.7,0-2.84-.36-3.43-1.08a4.5,4.5,0,0,1-.88-2.94q0-7.06,11.27-18.73A132.52,132.52,0,0,1,379.46,450a2.44,2.44,0,0,0,1.12-1.92c0-.75.05-1.38.05-1.91q0-6.57-8.72-6.86a15.13,15.13,0,0,1-4.32-.69,1.7,1.7,0,0,1-1.18-1.66c0-1.12,1.54-3.37,4.61-6.77,3.34-4.12,5-6.34,5-6.67s-.19-.29-.58-.29c-.66,0-2.11.7-4.37,2.1s-3.81,2.11-4.66,2.11a2.26,2.26,0,0,1-1.27-.39,2.61,2.61,0,0,1-.88-2.06q0-2.36,3.09-3.43a27.75,27.75,0,0,1,8.77-1.08c3.2,0,4.81,1,4.81,3q0,1.57-1.87,4.12-1.28,1.66-3.13,3.73Q372,436,372,436.49c0,.27.56.4,1.67.4q11.37,0,12.26,8.63l.39,1.66q14.61-8.13,15.4-8.14c.45,0,.68.17.68.49q0,.8-5.73,3.88a93.89,93.89,0,0,0-10.74,6.72,69.74,69.74,0,0,1-9.32,19.22Q366.8,484,359.26,486.6A12.75,12.75,0,0,1,355,487.39Zm-.69-2.26a8.09,8.09,0,0,0,3.63-1.37q4.41-2.65,9.51-9A78.21,78.21,0,0,0,378,457.19a17.75,17.75,0,0,0,1.56-4.52v-.09q-.58,0-5.68,3.92a76.79,76.79,0,0,0-15.05,14.9Q353,479.26,353,483.47C353,484.58,353.44,485.13,354.35,485.13Z" transform="translate(-54.42 -333.3)"/><path class="cls-3" d="M401.52,453.66a5,5,0,0,1-4.61-2.16A6.42,6.42,0,0,1,396,448q0-7,9.27-17.21t18.48-10.25q5.49,0,7.06,4.12h.49q4.21,0,4.22,2.75c0,.85-.59,2.12-1.77,3.82q-.69,1.17-3.72,7.94t-3,9.42c0,1.44.65,2.15,2,2.15,1.57,0,3.95-1.11,7.16-3.33a98.81,98.81,0,0,0,9.12-6.86Q448.1,438,449,438a.46.46,0,0,1,.39.49q0,1.47-8.53,8.23t-13.73,6.77a4.71,4.71,0,0,1-4.11-1.77,5,5,0,0,1-1-3.33c0-2.75.75-6.63,2.25-11.67-2.35,2.42-4.3,4.32-5.83,5.69s-2.93,2.65-4.17,3.82Q406.71,453.66,401.52,453.66Zm4.32-4.91q4.61,0,19-19.22a20.36,20.36,0,0,0,1.76-2.84c-.65-.39-1-.75-1-1.08v-.49c0-.46-.55-.69-1.66-.69s-3.62,1.31-7.31,3.93a35.77,35.77,0,0,0-9.85,11.17q-2.85,5-2.85,7.26a1.78,1.78,0,0,0,.59,1.52A2,2,0,0,0,405.84,448.75Z" transform="translate(-54.42 -333.3)"/><path class="cls-3" d="M446.14,455c-1.63,0-2.45-1.11-2.45-3.34q0-4.11,4-18.33,3.23-11.58,6.37-13.54a6.7,6.7,0,0,1,3.14-1.07c1.7,0,2.58.91,2.65,2.74q0,1.58-2.16,4.71a63.15,63.15,0,0,0-6.82,13.63c-1.6,4.58-2.4,7.45-2.4,8.63,0,.59.16.88.49.88q1.38,0,9.91-12.21t11.91-14.66q3.39-2.45,5.34-2.45,2.16,0,2.16,1.77c0,.85-.95,3.44-2.84,7.79s-2.85,7.05-2.85,8.09c0,.59.59.88,1.77.88.78,0,2.19-.11,4.22-.34s3.3-.34,3.82-.34c.72,0,1.08.19,1.08.59q0,1.08-5.39,2a55.51,55.51,0,0,1-6.38.59,5.43,5.43,0,0,1-1.76-.3,2.46,2.46,0,0,1-1.38-2.25q0-2.07,2.41-7.6c1.6-3.7,2.4-5.77,2.4-6.23q0-.39-.3-.39a1.21,1.21,0,0,0-.58.29q-7.95,6-20.11,26.09Q449,455,446.14,455Z" transform="translate(-54.42 -333.3)"/><path class="cls-3" d="M485.36,462.28q-6.86,0-6.86-8.92,0-13.62,9.9-41.67l1.57-4.42a123.73,123.73,0,0,0-22.85,3.93,16.15,16.15,0,0,1-3.63.58,2.54,2.54,0,0,1-2.2-.88,2.86,2.86,0,0,1-.64-1.67,2.46,2.46,0,0,1,1.08-1.86q2.75-2.44,19.61-3.14l2.16-.1q6.18-.39,7.11-.58a1.39,1.39,0,0,0,1.13-1.18,7.73,7.73,0,0,0,.68-3.43q0-2.55,3.24-3.63a9,9,0,0,1,2.45-.39,3.86,3.86,0,0,1,2.6.88,2.83,2.83,0,0,1,1,2.25,7.86,7.86,0,0,1-1.47,3.24L498.7,404l28.14,1.37c4.12.26,6.44.56,7,.88a1.14,1.14,0,0,1,.2.79,5.65,5.65,0,0,1-2.25.19l-4.22-.1q-10.5-.48-17.95-.49c-6.53,0-10.46.14-11.76.4-.46,0-1,.49-1.57,1.47L495,411a139.59,139.59,0,0,0-8.87,24.07q-3,11.54-3,17.41a19.84,19.84,0,0,0,.29,3.53c.33,1.9.82,3,1.47,3.23a4.49,4.49,0,0,0,1.67.4q4.71,0,14.17-10.79t10.05-10.79c.46,0,.69.3.69.89q0,1.37-9.91,12t-14.71,11.23Z" transform="translate(-54.42 -333.3)"/><path class="cls-4" d="M187.57,333.79h6.66v47.46h-6.66ZM191,356.51h15.18a7,7,0,0,0,3.78-1,6.69,6.69,0,0,0,2.53-2.87,10.67,10.67,0,0,0,0-8.58,6.72,6.72,0,0,0-6.31-3.92H191v-6.33H206a15,15,0,0,1,7.47,1.81,12.52,12.52,0,0,1,5,5.11,17.24,17.24,0,0,1,0,15.26,12.42,12.42,0,0,1-5,5.07,15.07,15.07,0,0,1-7.47,1.8H191Z" transform="translate(-54.42 -333.3)"/><path class="cls-5" d="M228.53,333.79h6.66v47.46h-6.66Zm4.15,20.92H259V361H232.68Zm22.81-20.92h6.66v47.46h-6.66Z" transform="translate(-54.42 -333.3)"/><path class="cls-6" d="M286.17,333.79h5.68l17.49,47.46h-7.18L289,343l-13.15,38.29h-7.18Zm-9.43,30.71h25v6.33h-25Z" transform="translate(-54.42 -333.3)"/><path class="cls-7" d="M316.52,333.76h6.66v47.49h-6.66Zm2.91,21.08h16.19a6.22,6.22,0,0,0,3.36-.91,6,6,0,0,0,2.27-2.6,9.74,9.74,0,0,0,0-7.73A6.12,6.12,0,0,0,339,341a6.25,6.25,0,0,0-3.37-.91H319.43v-6.33h15.93a14.84,14.84,0,0,1,7.22,1.7,11.84,11.84,0,0,1,4.83,4.81,15.87,15.87,0,0,1,0,14.39,12,12,0,0,1-4.85,4.82,14.83,14.83,0,0,1-7.19,1.69H319.43Zm12.92,4.86,6.63-1.5,12.14,23.05h-7.9Z" transform="translate(-54.42 -333.3)"/><path class="cls-8" d="M394.2,333.79h6.23v47.46h-6.49V345.7l.33,2.09-11.69,26.86H378l-11.69-26.21.33-2.74v35.55h-6.5V333.79h6.24l13.93,31.33Z" transform="translate(-54.42 -333.3)"/><path class="cls-9" d="M424.46,333.79h5.67l17.5,47.46h-7.18L427.3,343l-13.16,38.29H407ZM415,364.5h25v6.33H415Z" transform="translate(-54.42 -333.3)"/><path class="cls-10" d="M459.07,379.55a15,15,0,0,1-5.8-6.2,20.16,20.16,0,0,1-2-9.3V351a20.16,20.16,0,0,1,2-9.3,15.09,15.09,0,0,1,5.8-6.22,16.82,16.82,0,0,1,8.66-2.2,16.38,16.38,0,0,1,7.51,1.75A15.89,15.89,0,0,1,481,340a18.58,18.58,0,0,1,3.11,7.41h-6.82a10.56,10.56,0,0,0-2.07-4,10.28,10.28,0,0,0-3.41-2.69,9.61,9.61,0,0,0-9.14.46,9.31,9.31,0,0,0-3.39,3.93A13.47,13.47,0,0,0,458,351v13a13.5,13.5,0,0,0,1.21,5.87,9.08,9.08,0,0,0,3.39,3.93,9.27,9.27,0,0,0,5.09,1.39,9.6,9.6,0,0,0,7.46-3.49,10.24,10.24,0,0,0,2.07-4.11h6.82A18.42,18.42,0,0,1,481,375a15.86,15.86,0,0,1-5.74,4.95,16.31,16.31,0,0,1-7.48,1.75A16.81,16.81,0,0,1,459.07,379.55Z" transform="translate(-54.42 -333.3)"/><path class="cls-11" d="M499.55,381.25H492.9V333.79h6.65Z" transform="translate(-54.42 -333.3)"/><path class="cls-12" d="M511.3,333.79H518v47.46H511.3Zm3.24,0h27.25v6.33H514.54Zm0,20.73H538.2v6.33H514.54Zm0,20.39h27.25v6.34H514.54Z" transform="translate(-54.42 -333.3)"/></svg>