<svg id="Calque_1" data-name="Calque 1" xmlns="http://www.w3.org/2000/svg" xmlns:xlink="http://www.w3.org/1999/xlink" viewBox="0 0 205.02 201.84"><defs><style>.cls-1{fill:url(#Dégradé_sans_nom_14);}.cls-2{fill:url(#Dégradé_sans_nom_27);}</style><linearGradient id="Dégradé_sans_nom_14" x1="194.99" y1="390.82" x2="337.45" y2="390.82" gradientUnits="userSpaceOnUse"><stop offset="0" stop-color="#1d345a"/><stop offset="0.37" stop-color="#2b4e83"/><stop offset="0.66" stop-color="#3666ac"/></linearGradient><linearGradient id="Dégradé_sans_nom_27" x1="257.55" y1="450.18" x2="400.01" y2="450.18" gradientUnits="userSpaceOnUse"><stop offset="0" stop-color="#048c38"/><stop offset="1" stop-color="#8abe40"/></linearGradient></defs><path class="cls-1" d="M319.77,426.69c-1.22,13.91-8,24.24-20.32,30.89A37.85,37.85,0,0,1,281.1,462c-19.58,0-39.16.1-58.75,0-14.08-.09-25.41-9.8-26.66-23.76a178.27,178.27,0,0,1-.1-30.39c1.22-14.47,12.75-24.11,27.4-24.15,10.62,0,21.24-.19,31.85.11,3.79.11,4.5-1.18,4.43-4.6-.2-10.38-.11-20.76-.08-31.15.07-16.93,11.57-28.4,28.47-28.42,7.79,0,15.57-.12,23.36,0,13.73.27,25.58,11.2,26.16,24.84.52,12,.11,24,.11,36.61-1.55,0-2.91,0-4.27,0-7.42.12-14.92-.36-22.26.49-18.39,2.14-31.31,14.18-35.41,32.12-1.05-10,6.38-25.34,15.82-33.47,10.52-9,23.12-9.55,36.19-8.86,0-9.53.48-18.61-.15-27.61-.55-7.94-8-14.05-16.46-14.27-8.25-.22-16.52-.25-24.77,0-10,.29-16.9,7.69-16.93,17.64,0,14.16-.09,28.32.06,42.48,0,3-.67,4.05-3.88,4-13.68-.19-27.37-.09-41.05-.1-12.21,0-19,6.75-19.12,19-.05,7.2-.1,14.4,0,21.59.14,10.89,7.18,17.91,18,17.94,19.58.06,39.16.18,58.74,0,15.19-.17,27.4-6.19,35.33-19.62A59.46,59.46,0,0,0,319.77,426.69Z" transform="translate(-194.99 -319.58)"/><path class="cls-2" d="M275.23,414.31c1.22-13.91,8-24.24,20.32-30.89A37.85,37.85,0,0,1,313.9,379c19.58,0,39.16-.1,58.75,0,14.08.09,25.41,9.8,26.66,23.76a178.27,178.27,0,0,1,.1,30.39c-1.22,14.47-12.75,24.11-27.4,24.15-10.62,0-21.24.19-31.85-.11-3.79-.11-4.5,1.18-4.43,4.6.2,10.38.11,20.76.08,31.15-.07,16.93-11.57,28.4-28.47,28.42-7.79,0-15.57.12-23.36,0-13.73-.27-25.58-11.2-26.16-24.84-.52-12-.11-24-.11-36.61,1.55,0,2.91,0,4.27,0,7.42-.12,14.92.36,22.26-.49,18.39-2.14,31.31-14.18,35.41-32.12,1.05,10-6.38,25.34-15.82,33.47-10.52,9-23.12,9.55-36.19,8.86,0,9.53-.48,18.61.15,27.61.55,7.94,8,14.05,16.46,14.27,8.25.22,16.52.25,24.77,0,10-.29,16.9-7.69,16.93-17.64,0-14.16.09-28.32-.06-42.48,0-3,.67-4.05,3.88-4,13.68.19,27.37.09,41.05.1,12.21,0,19-6.75,19.12-19,.05-7.2.1-14.4,0-21.59-.14-10.89-7.18-17.91-18-17.94-19.58-.06-39.16-.18-58.74,0-15.19.17-27.4,6.19-35.33,19.62A59.46,59.46,0,0,0,275.23,414.31Z" transform="translate(-194.99 -319.58)"/></svg>